<?xml version="1.0" encoding="UTF-8" ?>
<!DOCTYPE svg PUBLIC "-//W3C//DTD SVG 1.1//EN" "http://www.w3.org/Graphics/SVG/1.1/DTD/svg11.dtd">
<svg width="93pt" height="77pt" viewBox="0 0 93 77" version="1.1" xmlns="http://www.w3.org/2000/svg">
<g id="#fefefeff">
<path fill="#fefefe" opacity="1.00" d=" M 7.97 8.99 C 10.65 10.65 12.19 13.46 14.32 15.68 C 21.73 23.14 28.62 31.09 36.21 38.37 C 34.40 40.17 32.62 42.02 30.82 43.85 C 27.70 47.12 23.61 49.25 20.56 52.60 C 16.66 56.77 12.58 60.81 9.02 65.28 C 10.72 64.69 11.53 63.01 12.62 61.72 C 16.19 57.20 21.70 54.84 25.41 50.47 C 28.98 46.44 32.48 42.25 37.04 39.29 C 39.51 40.67 41.23 42.98 43.39 44.76 C 45.48 44.73 47.57 44.72 49.66 44.73 C 51.68 42.68 53.59 40.30 56.43 39.36 C 57.81 36.26 60.60 34.23 62.85 31.81 C 67.25 27.20 71.69 22.63 76.09 18.03 C 78.54 15.45 81.62 13.10 82.31 9.38 C 85.33 9.03 84.36 12.06 84.48 14.00 C 84.29 30.85 84.34 47.69 84.20 64.53 C 79.87 62.48 77.10 58.44 73.55 55.39 C 68.87 51.36 66.09 45.47 60.34 42.51 C 68.99 49.91 75.56 59.84 85.17 66.16 C 59.45 66.39 33.72 66.13 8.00 66.41 C 8.38 47.27 7.75 28.13 7.97 8.99 Z" />
<path fill="#fefefe" opacity="1.00" d=" M 10.12 9.73 C 33.99 9.74 57.85 9.72 81.71 9.74 C 81.09 11.10 80.74 12.66 79.59 13.70 C 73.66 19.74 67.38 25.43 61.50 31.52 C 57.46 35.56 53.71 39.88 49.50 43.74 C 47.50 43.82 45.49 43.84 43.49 43.78 C 41.12 41.41 38.38 39.42 36.19 36.87 C 28.04 27.31 17.90 19.63 10.12 9.73 Z" />
</g>
</svg>
