<?xml version="1.0" encoding="UTF-8" ?>
<!DOCTYPE svg PUBLIC "-//W3C//DTD SVG 1.1//EN" "http://www.w3.org/Graphics/SVG/1.1/DTD/svg11.dtd">
<svg width="89pt" height="81pt" viewBox="0 0 89 81" version="1.1" xmlns="http://www.w3.org/2000/svg">
<g id="#ffffffff">
<path fill="#ffffff" opacity="1.00" d=" M 24.93 8.06 C 33.65 5.88 42.71 7.19 51.58 6.86 C 48.74 9.09 45.34 10.52 41.69 10.53 C 45.33 14.92 47.92 20.80 46.32 26.57 C 45.25 31.80 40.04 34.52 37.68 39.02 C 36.74 41.62 39.10 43.62 40.80 45.17 C 44.66 48.58 49.33 52.31 49.76 57.85 C 50.73 64.68 46.23 71.22 40.31 74.23 C 34.05 77.33 26.74 77.87 19.94 76.60 C 15.34 75.58 10.80 72.90 8.68 68.55 C 6.43 63.69 8.39 57.68 12.42 54.39 C 17.63 49.97 24.68 49.01 31.25 48.62 C 29.89 45.60 29.19 42.35 29.19 39.04 C 23.43 39.21 17.01 37.12 14.19 31.70 C 8.76 22.83 15.21 10.37 24.93 8.06 M 25.37 10.55 C 21.97 11.76 20.03 15.42 20.00 18.89 C 19.90 24.68 21.98 30.77 26.48 34.58 C 30.22 37.74 37.24 36.17 38.48 31.19 C 39.71 25.76 38.35 20.04 35.78 15.20 C 33.91 11.57 29.40 8.93 25.37 10.55 M 26.43 51.64 C 21.79 52.41 16.92 55.21 15.61 60.01 C 14.42 64.96 18.07 69.81 22.50 71.66 C 27.34 73.70 33.03 73.85 37.96 72.00 C 42.66 70.33 45.39 64.35 43.18 59.79 C 40.02 54.02 33.18 49.35 26.43 51.64 Z" />
<path fill="#ffffff" opacity="1.00" d=" M 68.22 7.50 C 70.13 7.36 72.04 7.24 73.95 7.11 C 74.00 11.09 73.99 15.08 74.00 19.07 C 77.83 19.07 81.65 19.06 85.48 19.08 C 85.52 20.98 85.55 22.89 85.57 24.79 C 81.71 24.80 77.86 24.80 74.00 24.80 C 73.99 28.79 73.98 32.78 73.97 36.77 C 72.04 36.63 70.12 36.50 68.19 36.37 C 68.29 32.54 68.29 28.70 68.22 24.87 C 64.35 24.87 60.48 24.86 56.61 24.87 C 56.62 22.91 56.63 20.96 56.64 19.00 C 60.50 19.00 64.36 19.00 68.21 19.00 C 68.28 15.17 68.28 11.33 68.22 7.50 Z" />
</g>
</svg>
