<?xml version="1.0" encoding="UTF-8" ?>
<!DOCTYPE svg PUBLIC "-//W3C//DTD SVG 1.1//EN" "http://www.w3.org/Graphics/SVG/1.1/DTD/svg11.dtd">
<svg width="297pt" height="290pt" viewBox="0 0 297 290" version="1.1" xmlns="http://www.w3.org/2000/svg">
<g id="#ffffffff">
<path fill="#ffffff" opacity="1.00" d=" M 31.56 7.79 C 37.28 6.30 43.36 5.70 49.11 7.38 C 61.99 10.86 72.68 22.46 73.84 35.93 C 76.03 51.83 64.90 68.47 49.25 72.23 C 32.05 77.41 11.98 65.11 8.75 47.46 C 8.05 41.76 7.36 35.84 9.13 30.26 C 12.21 19.65 20.96 10.90 31.56 7.79 Z" />
<path fill="#ffffff" opacity="1.00" d=" M 197.57 94.29 C 217.84 89.94 240.92 92.10 257.45 105.60 C 273.21 117.93 280.37 138.51 280.46 158.03 C 281.12 198.68 280.61 239.34 280.73 279.99 C 262.41 280.01 244.09 280.00 225.77 280.00 C 225.61 251.34 225.89 222.69 225.77 194.03 C 225.81 183.81 225.78 173.35 222.55 163.54 C 220.19 156.42 215.67 149.66 208.96 146.03 C 198.65 141.38 186.09 141.67 176.24 147.35 C 169.66 151.13 164.89 157.62 162.59 164.79 C 159.29 174.50 159.55 184.89 159.42 195.02 C 159.49 223.32 159.52 251.63 159.47 279.93 C 141.57 279.93 123.67 279.94 105.77 279.93 C 105.78 219.13 105.78 158.33 105.79 97.54 C 123.67 97.53 141.55 97.53 159.43 97.54 C 159.48 105.44 159.52 113.35 159.56 121.25 C 169.74 109.44 181.92 97.94 197.57 94.29 Z" />
<path fill="#ffffff" opacity="1.00" d=" M 13.30 97.53 C 32.02 97.47 50.74 97.45 69.46 97.54 C 69.47 158.36 69.46 219.18 69.46 280.00 C 50.74 280.00 32.01 280.01 13.29 279.99 C 13.30 219.17 13.27 158.35 13.30 97.53 Z" />
</g>
</svg>
