<?xml version="1.0" encoding="UTF-8" ?>
<!DOCTYPE svg PUBLIC "-//W3C//DTD SVG 1.1//EN" "http://www.w3.org/Graphics/SVG/1.1/DTD/svg11.dtd">
<svg width="48pt" height="75pt" viewBox="0 0 48 75" version="1.1" xmlns="http://www.w3.org/2000/svg">
<g id="#ffffffff">
<path fill="#ffffff" opacity="1.00" d=" M 31.36 3.41 C 36.07 3.25 40.78 3.30 45.49 3.26 C 45.51 8.24 45.50 13.22 45.50 18.20 C 41.34 18.30 37.14 17.94 33.01 18.51 C 29.98 19.54 30.56 23.28 30.40 25.80 C 34.18 25.80 37.96 25.80 41.75 25.80 C 41.75 30.78 41.75 35.76 41.75 40.73 C 38.00 40.73 34.25 40.73 30.51 40.73 C 30.50 50.73 30.50 60.73 30.51 70.73 C 25.52 70.73 20.54 70.75 15.56 70.71 C 15.58 60.72 15.59 50.72 15.56 40.73 C 11.81 40.74 8.07 40.74 4.32 40.73 C 4.34 35.75 4.30 30.77 4.35 25.79 C 8.10 25.80 11.84 25.81 15.59 25.79 C 15.60 22.18 15.27 18.50 16.06 14.95 C 18.08 8.38 24.59 3.76 31.36 3.41 Z" />
</g>
</svg>
