<?xml version="1.0" encoding="UTF-8" ?>
<!DOCTYPE svg PUBLIC "-//W3C//DTD SVG 1.1//EN" "http://www.w3.org/Graphics/SVG/1.1/DTD/svg11.dtd">
<svg width="89pt" height="99pt" viewBox="0 0 89 99" version="1.1" xmlns="http://www.w3.org/2000/svg">
<g id="#ffffffff">
<path fill="#ffffff" opacity="1.00" d=" M 17.30 7.41 C 22.38 6.72 27.05 10.26 31.31 12.68 C 38.50 12.13 45.69 10.55 52.92 11.69 C 56.81 11.72 61.01 13.73 64.61 11.49 C 68.71 9.41 72.75 6.77 77.56 6.96 C 79.14 12.06 78.46 17.42 78.64 22.66 C 80.17 26.16 82.83 29.24 83.33 33.14 C 84.60 41.36 83.18 50.34 78.05 57.06 C 73.02 62.64 65.43 65.01 58.14 65.65 C 62.79 74.87 59.82 85.42 61.73 95.15 C 60.84 96.10 60.01 97.33 58.55 97.33 C 53.05 97.70 47.52 99.19 42.02 97.97 C 38.66 97.30 34.82 97.72 32.11 95.21 C 32.83 90.68 32.84 86.10 32.47 81.54 C 27.17 82.78 21.08 82.87 16.53 79.45 C 13.15 76.61 12.31 71.86 9.15 68.81 C 7.41 67.11 5.60 65.48 4.04 63.60 C 8.31 63.22 11.92 66.05 14.57 69.06 C 14.58 69.73 14.62 71.06 14.63 71.72 C 15.28 71.61 16.58 71.39 17.23 71.28 C 17.29 72.20 17.40 74.05 17.46 74.98 C 19.22 75.18 21.84 74.48 21.53 77.19 C 24.96 76.36 28.50 76.33 32.01 76.39 C 32.85 72.84 34.42 69.54 36.15 66.35 C 28.98 64.53 21.09 63.02 16.02 57.09 C 8.50 47.12 7.72 31.76 16.16 22.06 C 14.84 17.31 14.13 11.56 17.30 7.41 Z" />
</g>
</svg>
