<?xml version="1.0" encoding="UTF-8" ?>
<!DOCTYPE svg PUBLIC "-//W3C//DTD SVG 1.1//EN" "http://www.w3.org/Graphics/SVG/1.1/DTD/svg11.dtd">
<svg width="83pt" height="69pt" viewBox="0 0 83 69" version="1.1" xmlns="http://www.w3.org/2000/svg">
<g id="#ffffffff">
<path fill="#ffffff" opacity="1.00" d=" M 50.39 7.31 C 53.33 4.90 57.33 6.30 60.73 6.37 C 59.65 8.03 57.93 9.05 56.24 10.00 C 64.23 11.16 69.17 18.69 71.08 25.95 C 73.75 25.88 76.42 25.77 79.09 25.75 C 77.05 27.65 74.68 29.13 72.23 30.44 C 74.80 30.67 77.35 30.91 79.91 31.23 C 77.26 32.97 74.32 34.20 71.23 34.89 C 67.92 44.92 60.44 53.59 50.70 57.84 C 42.33 61.43 32.63 62.32 23.90 59.47 C 16.85 57.33 10.66 52.81 6.13 47.04 C 10.04 48.40 13.77 50.72 18.05 50.62 C 23.30 50.78 28.12 48.19 32.04 44.91 C 30.40 44.03 28.74 43.21 27.11 42.32 C 27.51 40.55 28.11 38.83 28.92 37.20 C 25.55 37.06 22.64 35.14 20.71 32.46 C 21.83 31.54 23.12 30.86 24.27 29.99 C 21.46 27.95 18.56 25.63 17.49 22.17 C 18.62 21.70 19.75 21.24 20.88 20.78 C 18.33 18.14 15.90 15.07 15.72 11.23 C 24.75 14.29 33.51 18.44 40.90 24.54 C 43.51 18.55 45.50 11.91 50.39 7.31 Z" />
</g>
</svg>
