<?xml version="1.0" encoding="UTF-8" ?>
<!DOCTYPE svg PUBLIC "-//W3C//DTD SVG 1.1//EN" "http://www.w3.org/Graphics/SVG/1.1/DTD/svg11.dtd">
<svg width="97pt" height="97pt" viewBox="0 0 97 97" version="1.1" xmlns="http://www.w3.org/2000/svg">
<g id="#545454ff">
</g>
<g id="#ffffffff">
<path fill="#ffffff" opacity="1.00" d=" M 26.56 15.52 C 39.41 8.00 56.38 8.13 69.09 15.91 C 76.92 20.70 83.46 28.25 85.89 37.20 C 83.82 37.20 81.74 37.21 79.67 37.25 C 78.40 35.23 77.55 32.89 75.92 31.12 C 74.17 30.44 72.15 30.92 70.30 30.78 C 70.51 32.96 70.70 35.15 70.66 37.35 C 68.76 37.19 66.77 37.45 64.93 36.88 C 63.86 35.28 63.74 33.26 63.33 31.44 C 56.96 30.56 50.45 31.08 44.01 31.03 C 39.89 31.47 35.67 30.02 31.66 31.48 C 31.28 33.28 30.84 35.07 30.42 36.86 C 28.35 37.19 26.25 37.27 24.15 37.23 C 24.34 35.08 24.55 32.93 24.70 30.77 C 22.86 30.87 20.94 30.54 19.16 31.05 C 17.41 32.75 16.63 35.20 15.34 37.24 C 13.26 37.21 11.18 37.20 9.10 37.20 C 11.63 28.01 18.42 20.29 26.56 15.52 M 34.89 24.66 C 43.28 24.99 51.71 24.97 60.10 24.67 C 57.14 20.74 53.43 16.06 47.99 16.22 C 42.14 15.56 38.02 20.46 34.89 24.66 M 24.16 24.76 C 27.22 25.87 28.88 23.59 29.90 21.16 C 27.77 21.97 25.92 23.33 24.16 24.76 M 65.18 21.12 C 66.09 23.35 67.38 25.50 70.18 24.96 C 68.74 23.41 67.17 21.92 65.18 21.12 Z" />
<path fill="#ffffff" opacity="1.00" d=" M 63.07 42.57 C 64.48 42.54 65.89 42.50 67.29 42.46 C 68.33 44.50 69.05 46.67 69.69 48.85 C 70.04 48.79 70.76 48.67 71.12 48.60 C 71.73 46.48 72.63 44.45 73.75 42.55 C 74.61 42.54 76.35 42.52 77.21 42.51 C 78.31 45.04 79.45 47.56 80.80 49.98 C 81.59 47.42 82.54 44.90 83.68 42.47 C 85.18 42.53 86.68 42.59 88.17 42.65 C 86.61 47.12 84.44 51.35 82.38 55.60 C 81.46 55.58 79.61 55.55 78.69 55.54 C 77.76 53.66 76.85 51.76 76.04 49.83 C 75.73 49.60 75.12 49.15 74.82 48.92 C 73.95 51.11 73.00 53.28 72.05 55.44 C 70.63 55.46 69.21 55.46 67.79 55.45 C 66.47 51.05 63.62 47.20 63.07 42.57 Z" />
<path fill="#ffffff" opacity="1.00" d=" M 7.27 42.50 C 8.87 42.54 10.47 42.60 12.06 42.67 C 12.72 45.19 13.59 47.65 14.77 49.98 C 15.83 47.53 16.90 45.09 17.97 42.65 C 18.84 42.59 20.58 42.48 21.45 42.43 C 22.63 44.23 23.55 46.20 23.94 48.34 C 24.32 48.48 25.07 48.76 25.44 48.90 C 26.30 46.82 27.14 44.72 27.95 42.62 C 29.50 42.59 31.05 42.59 32.60 42.59 C 31.31 47.11 28.70 51.10 27.11 55.50 C 25.69 55.47 24.27 55.44 22.86 55.38 C 21.96 53.15 21.05 50.92 20.15 48.69 C 18.53 50.76 17.42 53.16 16.30 55.53 C 15.38 55.55 13.53 55.59 12.60 55.61 C 10.64 51.32 8.47 47.08 7.27 42.50 Z" />
<path fill="#ffffff" opacity="1.00" d=" M 35.04 42.63 C 36.13 42.59 38.31 42.50 39.39 42.46 C 40.43 44.65 41.25 46.94 42.01 49.24 C 44.09 47.60 44.48 44.74 45.78 42.56 C 46.69 42.54 48.53 42.49 49.44 42.47 C 50.86 44.59 50.97 47.67 53.22 49.12 C 54.08 46.92 54.93 44.71 55.81 42.52 C 57.25 42.56 58.70 42.60 60.15 42.66 C 59.13 47.22 56.79 51.35 54.64 55.46 C 53.39 55.56 52.13 55.52 50.88 55.51 C 49.88 53.26 48.85 51.02 47.78 48.80 C 46.14 50.80 45.14 53.20 44.08 55.53 C 42.57 55.28 40.11 56.32 39.61 54.23 C 38.01 50.40 35.92 46.73 35.04 42.63 Z" />
<path fill="#ffffff" opacity="1.00" d=" M 9.11 60.80 C 11.19 60.79 13.27 60.79 15.35 60.76 C 16.61 62.80 17.41 65.19 19.11 66.92 C 20.88 67.51 22.85 67.11 24.70 67.23 C 24.49 65.04 24.32 62.84 24.34 60.64 C 26.24 60.80 28.21 60.57 30.06 61.11 C 31.16 62.68 31.26 64.72 31.62 66.55 C 36.04 67.02 40.48 67.35 44.92 67.02 C 51.05 66.67 57.30 67.98 63.33 66.54 C 63.70 64.73 64.15 62.93 64.59 61.13 C 66.65 60.83 68.73 60.72 70.81 60.73 C 70.65 62.90 70.46 65.06 70.31 67.23 C 72.21 67.19 74.12 67.17 76.02 67.16 C 77.27 65.04 78.46 62.90 79.67 60.76 C 81.74 60.79 83.81 60.79 85.89 60.80 C 83.48 69.72 76.96 77.24 69.17 82.04 C 56.21 90.02 38.77 90.02 25.81 82.03 C 18.03 77.24 11.53 69.72 9.11 60.80 M 24.82 73.00 C 25.88 74.97 27.88 76.05 29.86 76.90 C 28.92 74.68 27.65 72.43 24.82 73.00 M 34.91 73.32 C 37.99 77.57 42.17 82.45 48.03 81.78 C 53.45 81.91 57.17 77.26 60.08 73.30 C 51.70 73.04 43.29 73.02 34.91 73.32 M 65.18 76.90 C 67.24 75.96 69.10 74.66 70.84 73.23 C 67.77 72.15 66.08 74.37 65.18 76.90 Z" />
</g>
</svg>
